<svg width="44" height="48" viewBox="0 0 44 48" fill="none" xmlns="http://www.w3.org/2000/svg">
<path d="M10.4993 16.5H3.20055C1.43324 16.5 0 17.9327 0 19.7V22.5H11C13.7614 22.5 16 20.2614 16 17.5C16 14.7386 18.2386 12.5 21 12.5H40C42.2091 12.5 44 10.7091 44 8.5V5.5H21.5C18.4624 5.5 16 7.96243 16 11C16 14.0376 13.5369 16.5 10.4993 16.5Z" fill="#0A0A0A"/>
<path opacity="0.7" d="M10.4993 26.5H3.20055C1.43324 26.5 0 27.9327 0 29.7V32.5H11C13.7614 32.5 16 30.2614 16 27.5C16 24.7386 18.2386 22.5 21 22.5H34C36.2091 22.5 38 20.7091 38 18.5V15.5H21.5C18.4624 15.5 16 17.9624 16 21C16 24.0376 13.5369 26.5 10.4993 26.5Z" fill="#0A0A0A"/>
<path opacity="0.5" d="M10.4993 36.5H3.20055C1.43324 36.5 0 37.9327 0 39.7V42.5H11C13.7614 42.5 16 40.2614 16 37.5C16 34.7386 18.2386 32.5 21 32.5H28.8C30.5673 32.5 32 31.0673 32 29.3V25.5H21.5C18.4624 25.5 16 27.9624 16 31C16 34.0376 13.5369 36.5 10.4993 36.5Z" fill="#0A0A0A"/>
</svg>