<svg width="48" height="48" viewBox="0 0 48 48" fill="none" xmlns="http://www.w3.org/2000/svg">
<g filter="url(#filter0_iii_3051_46981)">
<g clip-path="url(#clip0_3051_46981)">
<rect width="48" height="48" rx="12" fill="#22262F"/>
<rect width="48" height="48" fill="url(#paint0_linear_3051_46981)"/>
<g filter="url(#filter1_d_3051_46981)">
<path d="M15.3745 18.375H9.90041C8.57493 18.375 7.5 19.4495 7.5 20.775V22.875H15.75C17.8211 22.875 19.5 21.1961 19.5 19.125C19.5 17.0539 21.1789 15.375 23.25 15.375H37.5C39.1569 15.375 40.5 14.0319 40.5 12.375V10.125H23.625C21.3468 10.125 19.5 11.9718 19.5 14.25C19.5 16.5282 17.6527 18.375 15.3745 18.375Z" fill="url(#paint1_linear_3051_46981)"/>
<path opacity="0.75" d="M15.3745 25.875H9.90041C8.57493 25.875 7.5 26.9495 7.5 28.275V30.375H15.75C17.8211 30.375 19.5 28.6961 19.5 26.625C19.5 24.5539 21.1789 22.875 23.25 22.875H33C34.6569 22.875 36 21.5319 36 19.875V17.625H23.625C21.3468 17.625 19.5 19.4718 19.5 21.75C19.5 24.0282 17.6527 25.875 15.3745 25.875Z" fill="url(#paint2_linear_3051_46981)"/>
<path opacity="0.5" d="M15.3745 33.375H9.90041C8.57493 33.375 7.5 34.4495 7.5 35.775V37.875H15.75C17.8211 37.875 19.5 36.1961 19.5 34.125C19.5 32.0539 21.1789 30.375 23.25 30.375H29.1C30.4255 30.375 31.5 29.3005 31.5 27.975V25.125H23.625C21.3468 25.125 19.5 26.9718 19.5 29.25C19.5 31.5282 17.6527 33.375 15.3745 33.375Z" fill="url(#paint3_linear_3051_46981)"/>
</g>
</g>
<rect x="1" y="1" width="46" height="46" rx="11" stroke="url(#paint4_linear_3051_46981)" stroke-width="2"/>
</g>
<defs>
<filter id="filter0_iii_3051_46981" x="0" y="-3" width="48" height="54" filterUnits="userSpaceOnUse" color-interpolation-filters="sRGB">
<feFlood flood-opacity="0" result="BackgroundImageFix"/>
<feBlend mode="normal" in="SourceGraphic" in2="BackgroundImageFix" result="shape"/>
<feColorMatrix in="SourceAlpha" type="matrix" values="0 0 0 0 0 0 0 0 0 0 0 0 0 0 0 0 0 0 127 0" result="hardAlpha"/>
<feOffset dy="-3"/>
<feGaussianBlur stdDeviation="1.5"/>
<feComposite in2="hardAlpha" operator="arithmetic" k2="-1" k3="1"/>
<feColorMatrix type="matrix" values="0 0 0 0 0 0 0 0 0 0 0 0 0 0 0 0 0 0 0.1 0"/>
<feBlend mode="normal" in2="shape" result="effect1_innerShadow_3051_46981"/>
<feColorMatrix in="SourceAlpha" type="matrix" values="0 0 0 0 0 0 0 0 0 0 0 0 0 0 0 0 0 0 127 0" result="hardAlpha"/>
<feOffset dy="3"/>
<feGaussianBlur stdDeviation="1.5"/>
<feComposite in2="hardAlpha" operator="arithmetic" k2="-1" k3="1"/>
<feColorMatrix type="matrix" values="0 0 0 0 1 0 0 0 0 1 0 0 0 0 1 0 0 0 0.1 0"/>
<feBlend mode="normal" in2="effect1_innerShadow_3051_46981" result="effect2_innerShadow_3051_46981"/>
<feColorMatrix in="SourceAlpha" type="matrix" values="0 0 0 0 0 0 0 0 0 0 0 0 0 0 0 0 0 0 127 0" result="hardAlpha"/>
<feMorphology radius="1" operator="erode" in="SourceAlpha" result="effect3_innerShadow_3051_46981"/>
<feOffset/>
<feComposite in2="hardAlpha" operator="arithmetic" k2="-1" k3="1"/>
<feColorMatrix type="matrix" values="0 0 0 0 0 0 0 0 0 0 0 0 0 0 0 0 0 0 0.2 0"/>
<feBlend mode="normal" in2="effect2_innerShadow_3051_46981" result="effect3_innerShadow_3051_46981"/>
</filter>
<filter id="filter1_d_3051_46981" x="4.5" y="5.25" width="39" height="42" filterUnits="userSpaceOnUse" color-interpolation-filters="sRGB">
<feFlood flood-opacity="0" result="BackgroundImageFix"/>
<feColorMatrix in="SourceAlpha" type="matrix" values="0 0 0 0 0 0 0 0 0 0 0 0 0 0 0 0 0 0 127 0" result="hardAlpha"/>
<feMorphology radius="1.5" operator="erode" in="SourceAlpha" result="effect1_dropShadow_3051_46981"/>
<feOffset dy="2.25"/>
<feGaussianBlur stdDeviation="2.25"/>
<feComposite in2="hardAlpha" operator="out"/>
<feColorMatrix type="matrix" values="0 0 0 0 0.141176 0 0 0 0 0.141176 0 0 0 0 0.141176 0 0 0 0.1 0"/>
<feBlend mode="normal" in2="BackgroundImageFix" result="effect1_dropShadow_3051_46981"/>
<feBlend mode="normal" in="SourceGraphic" in2="effect1_dropShadow_3051_46981" result="shape"/>
</filter>
<linearGradient id="paint0_linear_3051_46981" x1="24" y1="5.96047e-07" x2="26" y2="48" gradientUnits="userSpaceOnUse">
<stop stop-color="white" stop-opacity="0"/>
<stop offset="1" stop-color="white" stop-opacity="0.12"/>
</linearGradient>
<linearGradient id="paint1_linear_3051_46981" x1="24" y1="10.125" x2="24" y2="22.875" gradientUnits="userSpaceOnUse">
<stop stop-color="white" stop-opacity="0.8"/>
<stop offset="1" stop-color="white" stop-opacity="0.5"/>
</linearGradient>
<linearGradient id="paint2_linear_3051_46981" x1="21.75" y1="17.625" x2="21.75" y2="30.375" gradientUnits="userSpaceOnUse">
<stop stop-color="white" stop-opacity="0.8"/>
<stop offset="1" stop-color="white" stop-opacity="0.5"/>
</linearGradient>
<linearGradient id="paint3_linear_3051_46981" x1="19.5" y1="25.125" x2="19.5" y2="37.875" gradientUnits="userSpaceOnUse">
<stop stop-color="white" stop-opacity="0.8"/>
<stop offset="1" stop-color="white" stop-opacity="0.5"/>
</linearGradient>
<linearGradient id="paint4_linear_3051_46981" x1="24" y1="0" x2="24" y2="48" gradientUnits="userSpaceOnUse">
<stop stop-color="white" stop-opacity="0.12"/>
<stop offset="1" stop-color="white" stop-opacity="0"/>
</linearGradient>
<clipPath id="clip0_3051_46981">
<rect width="48" height="48" rx="12" fill="white"/>
</clipPath>
</defs>
</svg>